# Exported from Wings 3D 1.5.3
mtllib Tetra.mtl
o tetrahedron1
#4 vertices, 4 faces
v 0.0000000e+0 1.08866211 0.0000000e+0
v 0.0000000e+0 -0.54433105 1.15470054
v -1.00000000 -0.54433105 -0.57735027
v 1.00000000 -0.54433105 -0.57735027
vt 0.0000000e+0 0.0000000e+0
vt 0.33333333 0.96225045
vt 1.00000000 0.19245009
vn 0.0000000e+0 1.00000000 -1.1102230e-16
vn 0.0000000e+0 -0.33333333 0.94280904
vn -0.81649658 -0.33333333 -0.47140452
vn 0.81649658 -0.33333333 -0.47140452
g tetrahedron1_Mat2
usemtl Mat2
s 1
f 1//1 4//4 3//3
g tetrahedron1_mat23
usemtl mat23
s 1
f 3//3 4//4 2//2
g tetrahedron1_tetrahedron1_auv
usemtl tetrahedron1_auv
s 1
f 1/2/1 3/1/3 2/3/2
f 2//2 4//4 1//1

