# Exported from Wings 3D 1.5.3
mtllib Trace.mtl
o Cube1
#28 vertices, 52 faces
v -37.42400000 -1.2000000e-2 -37.42400000
v -37.42400000 -1.2000000e-2 37.42400000
v -37.42400000 1.2000000e-2 -37.42400000
v -37.42400000 1.2000000e-2 37.42400000
v 37.42400000 -1.2000000e-2 -37.42400000
v 37.42400000 -1.2000000e-2 37.42400000
v 37.42400000 1.2000000e-2 -37.42400000
v 37.42400000 1.2000000e-2 37.42400000
v -37.38657600 1.2000000e-2 -37.38657600
v -37.38657600 1.2000000e-2 37.38657600
v 37.38657600 1.2000000e-2 37.38657600
v 37.38657600 1.2000000e-2 -37.38657600
v -37.39941243 1.2000000e-2 37.38125898
v -37.39941243 1.2000000e-2 -37.38125898
v -37.41116357 1.2000000e-2 -37.39301011
v -37.41116357 1.2000000e-2 37.39301011
v 37.38125898 1.2000000e-2 37.39941243
v -37.38125898 1.2000000e-2 37.39941243
v -37.39301011 1.2000000e-2 37.41116357
v 37.39301011 1.2000000e-2 37.41116357
v 37.39941243 1.2000000e-2 -37.38125898
v 37.39941243 1.2000000e-2 37.38125898
v 37.41116357 1.2000000e-2 37.39301011
v 37.41116357 1.2000000e-2 -37.39301011
v -37.38125898 1.2000000e-2 -37.39941243
v 37.38125898 1.2000000e-2 -37.39941243
v 37.39301011 1.2000000e-2 -37.41116357
v -37.39301011 1.2000000e-2 -37.41116357
vt 0.0000000e+0 0.0000000e+0
vt 0.0000000e+0 1.00000000
vt 1.00000000 0.0000000e+0
vt 1.00000000 1.00000000
vn -0.57735027 -0.57735027 -0.57735027
vn -0.57735027 -0.57735027 0.57735027
vn -0.23570226 0.94280904 -0.23570226
vn -0.23570226 0.94280904 0.23570226
vn 0.57735027 -0.57735027 -0.57735027
vn 0.57735027 -0.57735027 0.57735027
vn 0.23570226 0.94280904 -0.23570226
vn 0.23570226 0.94280904 0.23570226
vn 0.0000000e+0 1.00000000 2.5412132e-17
vn 0.0000000e+0 1.00000000 0.0000000e+0
vn 0.0000000e+0 1.00000000 -2.5412132e-17
vn 0.0000000e+0 1.00000000 0.0000000e+0
vn 0.0000000e+0 1.00000000 -4.2353553e-17
vn 0.0000000e+0 1.00000000 8.4707107e-17
vn 0.0000000e+0 1.00000000 4.2353553e-17
vn 0.0000000e+0 1.00000000 -8.4707107e-17
vn 0.0000000e+0 1.00000000 0.0000000e+0
vn 0.0000000e+0 1.00000000 3.2425781e-17
vn 0.0000000e+0 1.00000000 -1.2248411e-17
vn 0.0000000e+0 1.00000000 -6.1242056e-18
vn 0.0000000e+0 1.00000000 4.2353553e-17
vn 0.0000000e+0 1.00000000 -8.4707107e-17
vn 0.0000000e+0 1.00000000 -4.2353553e-17
vn 0.0000000e+0 1.00000000 8.4707107e-17
vn 0.0000000e+0 1.00000000 0.0000000e+0
vn 0.0000000e+0 1.00000000 -3.2425781e-17
vn 0.0000000e+0 1.00000000 1.2248411e-17
vn 0.0000000e+0 1.00000000 6.1242056e-18
g Cube1_TraceMaterial
usemtl TraceMaterial
s 1
f 10/1/10 11/3/11 9/2/9
f 12/4/12 9/2/9 11/3/11
g Cube1_default
usemtl default
s 1
f 1//1 4//4 3//3
f 1//1 6//6 2//2
f 1//1 7//7 5//5
f 2//2 4//4 1//1
f 2//2 6//6 4//4
f 3//3 7//7 1//1
f 3//3 15//15 9//9
f 3//3 28//28 7//7
f 4//4 6//6 8//8
f 4//4 15//15 3//3
f 4//4 18//18 10//10
f 5//5 6//6 1//1
f 5//5 7//7 6//6
f 6//6 7//7 8//8
f 7//7 23//23 8//8
f 7//7 26//26 12//12
f 8//8 20//20 4//4
f 8//8 23//23 11//11
f 9//9 13//13 10//10
f 9//9 28//28 3//3
f 10//10 13//13 4//4
f 10//10 18//18 11//11
f 11//11 20//20 8//8
f 11//11 21//21 12//12
f 12//12 21//21 7//7
f 12//12 26//26 9//9
f 13//13 9//9 14//14
f 14//14 9//9 15//15
f 14//14 15//15 13//13
f 15//15 4//4 16//16
f 16//16 4//4 13//13
f 16//16 13//13 15//15
f 17//17 11//11 18//18
f 17//17 20//20 11//11
f 18//18 4//4 19//19
f 18//18 20//20 17//17
f 19//19 4//4 20//20
f 19//19 20//20 18//18
f 21//21 11//11 22//22
f 22//22 11//11 23//23
f 22//22 23//23 21//21
f 23//23 7//7 24//24
f 24//24 7//7 21//21
f 24//24 21//21 23//23
f 25//25 9//9 26//26
f 25//25 28//28 9//9
f 26//26 7//7 27//27
f 26//26 28//28 25//25
f 27//27 7//7 28//28
f 27//27 28//28 26//26
